<svg width="282" height="108" xmlns="http://www.w3.org/2000/svg" xmlns:xlink="http://www.w3.org/1999/xlink" xml:space="preserve" overflow="hidden"><g transform="translate(-244 -180)"><g><g><g><g><path d="M177.268 21.874 215.671 21.874 215.671 33.3553 189.739 33.3553 189.739 43.9459 209.535 43.9459 209.535 55.4273 189.739 55.4273 189.739 66.9086 215.77 66.9086 215.77 78.39 177.268 78.39 177.268 21.874Z" fill="#00829D" fill-rule="nonzero" fill-opacity="1" transform="matrix(1.00568 0 0 1 245 180.206)"/><path d="M252.491 35.7308C251.501 34.4441 250.116 33.5533 248.334 32.8605 246.552 32.2666 244.969 31.9697 243.385 31.9697 242.494 31.9697 241.505 32.0686 240.614 32.2666 239.624 32.4645 238.733 32.8605 237.941 33.2564 237.051 33.7512 236.358 34.3451 235.863 35.038 235.368 35.8298 235.071 36.7206 235.071 37.7103 235.071 39.393 235.665 40.6797 236.952 41.6694 238.238 42.5602 239.822 43.352 241.801 43.9459 243.781 44.5398 245.86 45.2326 248.037 45.8265 250.314 46.4203 252.392 47.4101 254.273 48.4989 256.252 49.6866 257.836 51.2702 259.122 53.2498 260.409 55.2293 261.003 57.9017 261.003 61.168 261.003 64.3352 260.409 67.0076 259.221 69.3831 258.034 71.7585 256.45 73.6391 254.471 75.2227 252.491 76.8064 250.116 77.8951 247.542 78.6869 244.87 79.4788 242.098 79.7757 239.228 79.7757 235.566 79.7757 232.102 79.1818 229.033 78.0931 225.866 77.0043 222.996 75.1237 220.224 72.6493L229.132 62.8506C230.419 64.5332 232.003 65.9189 233.982 66.8097 235.962 67.7005 237.941 68.1953 240.02 68.1953 241.01 68.1953 242.098 68.0964 243.088 67.7994 244.078 67.6015 245.068 67.2056 245.86 66.7107 246.651 66.2158 247.344 65.6219 247.839 64.8301 248.334 64.0383 248.631 63.2465 248.631 62.1577 248.631 60.4751 247.938 59.0894 246.651 58.0997 245.365 57.1099 243.682 56.3181 241.702 55.6252 239.723 54.9324 237.644 54.2395 235.269 53.5467 232.992 52.8539 230.815 51.9631 228.835 50.7753 226.856 49.5876 225.272 48.103 223.887 46.1234 222.6 44.2428 221.907 41.6694 221.907 38.5022 221.907 35.4339 222.501 32.7615 223.689 30.485 224.876 28.2085 226.46 26.229 228.44 24.7443 230.419 23.1607 232.696 22.0719 235.368 21.2801 237.941 20.4883 240.713 20.0924 243.484 20.0924 246.651 20.0924 249.819 20.5873 252.788 21.4781 255.757 22.3689 258.43 23.9525 260.904 26.031L252.491 35.7308Z" fill="#00829D" fill-rule="nonzero" fill-opacity="1" transform="matrix(1.00568 0 0 1 245 180.206)"/><path d="M266.942 21.874 279.413 21.874 279.413 78.489 266.942 78.489 266.942 21.874Z" fill="#00829D" fill-rule="nonzero" fill-opacity="1" transform="matrix(1.00568 0 0 1 245 180.206)"/><path d="M133.322 11.5803 215.573 11.5803 215.573 0 137.183 0C135.005 0 133.322 1.78159 133.322 3.86011L133.322 11.5803Z" fill="#671760" fill-rule="nonzero" fill-opacity="1" transform="matrix(1.00568 0 0 1 245 180.206)"/><path d="M182.118 91.356C182.118 92.1478 181.821 92.7417 181.326 93.1376 180.831 93.5335 180.04 93.7315 179.05 93.7315L178.159 93.7315 178.159 96.7998 177.268 96.7998 177.268 89.0795 179.248 89.0795C181.128 89.0795 182.118 89.8714 182.118 91.356ZM178.159 92.9397 178.951 92.9397C179.743 92.9397 180.337 92.8407 180.634 92.5438 181.029 92.2468 181.128 91.8509 181.128 91.356 181.128 90.8611 180.93 90.4652 180.634 90.2673 180.337 89.9703 179.743 89.8714 179.05 89.8714L178.06 89.8714 178.06 92.9397Z" fill="#671760" fill-rule="nonzero" fill-opacity="1" transform="matrix(1.00568 0 0 1 245 180.206)"/><path d="M188.552 93.8305C188.552 94.7212 188.354 95.5131 187.859 96.008 187.364 96.5028 186.77 96.7998 185.879 96.7998 185.384 96.7998 184.89 96.7008 184.494 96.4039 184.098 96.2059 183.801 95.81 183.603 95.3151 183.405 94.8202 183.306 94.3253 183.306 93.7315 183.306 92.8407 183.504 92.0489 183.999 91.554 184.494 91.0591 185.088 90.7622 185.978 90.7622 186.77 90.7622 187.463 91.0591 187.859 91.554 188.354 92.2468 188.552 92.9397 188.552 93.8305ZM184.197 93.8305C184.197 94.5233 184.296 95.1172 184.593 95.5131 184.89 95.909 185.285 96.1069 185.879 96.1069 186.473 96.1069 186.869 95.909 187.166 95.5131 187.463 95.1172 187.562 94.5233 187.562 93.8305 187.562 93.1376 187.463 92.5438 187.166 92.1478 186.869 91.7519 186.473 91.554 185.879 91.554 185.285 91.554 184.89 91.7519 184.593 92.1478 184.296 92.5438 184.197 93.1376 184.197 93.8305Z" fill="#671760" fill-rule="nonzero" fill-opacity="1" transform="matrix(1.00568 0 0 1 245 180.206)"/><path d="M194.787 96.7998 193.699 93.4345C193.6 93.2366 193.501 92.7417 193.303 92.0489 193.204 92.6427 193.006 93.1376 192.907 93.4345L191.818 96.7998 190.828 96.7998 189.245 91.0591 190.135 91.0591C190.531 92.5438 190.828 93.6325 191.026 94.3253 191.224 95.1172 191.323 95.612 191.323 95.81 191.323 95.612 191.422 95.3151 191.521 95.0182 191.62 94.7212 191.719 94.4243 191.719 94.2264L192.808 90.9601 193.798 90.9601 194.787 94.2264C194.985 94.8202 195.084 95.3151 195.183 95.711 195.183 95.612 195.282 95.4141 195.282 95.1172 195.381 94.8202 195.678 93.4345 196.371 90.8611L197.262 90.8611 195.678 96.6018 194.787 96.6018Z" fill="#671760" fill-rule="nonzero" fill-opacity="1" transform="matrix(1.00568 0 0 1 245 180.206)"/><path d="M200.924 96.8988C200.033 96.8988 199.439 96.6018 198.944 96.1069 198.449 95.612 198.251 94.8202 198.251 93.9294 198.251 93.0386 198.449 92.2468 198.944 91.7519 199.439 91.1581 200.033 90.9601 200.825 90.9601 201.518 90.9601 202.112 91.1581 202.508 91.653 202.903 92.1478 203.101 92.7417 203.101 93.5335L203.101 94.0284 199.142 94.0284C199.142 94.7212 199.34 95.2161 199.637 95.612 199.934 96.008 200.429 96.1069 201.023 96.1069 201.617 96.1069 202.211 96.008 202.903 95.711L202.903 96.5028C202.606 96.6018 202.31 96.7008 202.013 96.7998 201.617 96.7998 201.32 96.8988 200.924 96.8988ZM200.627 91.653C200.132 91.653 199.835 91.8509 199.538 92.1478 199.241 92.4448 199.142 92.8407 199.043 93.4345L202.013 93.4345C202.013 92.8407 201.914 92.4448 201.617 92.1478 201.419 91.7519 201.122 91.653 200.627 91.653Z" fill="#671760" fill-rule="nonzero" fill-opacity="1" transform="matrix(1.00568 0 0 1 245 180.206)"/><path d="M207.159 90.8611C207.456 90.8611 207.654 90.8611 207.852 90.9601L207.753 91.7519C207.555 91.653 207.258 91.653 207.159 91.653 206.665 91.653 206.269 91.8509 205.972 92.2468 205.675 92.6427 205.477 93.1376 205.477 93.6325L205.477 96.7008 204.586 96.7008 204.586 90.9601 205.279 90.9601 205.378 92.0489C205.576 91.653 205.873 91.356 206.17 91.1581 206.467 90.9601 206.764 90.8611 207.159 90.8611Z" fill="#671760" fill-rule="nonzero" fill-opacity="1" transform="matrix(1.00568 0 0 1 245 180.206)"/><path d="M211.316 96.8988C210.426 96.8988 209.832 96.6018 209.337 96.1069 208.842 95.612 208.644 94.8202 208.644 93.9294 208.644 93.0386 208.842 92.2468 209.337 91.7519 209.832 91.1581 210.426 90.9601 211.217 90.9601 211.91 90.9601 212.504 91.1581 212.9 91.653 213.296 92.1478 213.494 92.7417 213.494 93.5335L213.494 94.0284 209.535 94.0284C209.535 94.7212 209.733 95.2161 210.03 95.612 210.327 96.008 210.822 96.1069 211.415 96.1069 212.009 96.1069 212.603 96.008 213.296 95.711L213.296 96.5028C212.999 96.6018 212.702 96.7008 212.405 96.7998 212.009 96.7998 211.712 96.8988 211.316 96.8988ZM211.119 91.653C210.624 91.653 210.327 91.8509 210.03 92.1478 209.733 92.4448 209.634 92.8407 209.535 93.4345L212.504 93.4345C212.504 92.8407 212.405 92.4448 212.108 92.1478 211.91 91.7519 211.514 91.653 211.119 91.653Z" fill="#671760" fill-rule="nonzero" fill-opacity="1" transform="matrix(1.00568 0 0 1 245 180.206)"/><path d="M218.839 96.008 218.839 96.008C218.344 96.6018 217.75 96.8988 216.958 96.8988 216.166 96.8988 215.573 96.6018 215.177 96.1069 214.781 95.612 214.583 94.8202 214.583 93.9294 214.583 92.9397 214.781 92.2468 215.177 91.7519 215.573 91.257 216.166 90.9601 216.958 90.9601 217.75 90.9601 218.344 91.257 218.74 91.8509L218.839 91.8509 218.839 91.455 218.839 91.0591 218.839 88.6836 219.73 88.6836 219.73 96.8988 219.037 96.8988 218.839 96.008ZM217.057 96.1069C217.651 96.1069 218.047 95.909 218.344 95.612 218.641 95.3151 218.74 94.7212 218.74 94.0284L218.74 93.8305C218.74 93.0386 218.641 92.4448 218.344 92.0489 218.047 91.653 217.651 91.554 217.057 91.554 216.562 91.554 216.166 91.7519 215.869 92.1478 215.573 92.5438 215.474 93.1376 215.474 93.8305 215.474 94.5233 215.573 95.1172 215.869 95.5131 216.166 95.909 216.562 96.1069 217.057 96.1069Z" fill="#671760" fill-rule="nonzero" fill-opacity="1" transform="matrix(1.00568 0 0 1 245 180.206)"/><path d="M226.955 90.8611C227.747 90.8611 228.341 91.1581 228.736 91.653 229.132 92.1478 229.33 92.9397 229.33 93.8305 229.33 94.8202 229.132 95.5131 228.736 96.008 228.341 96.5028 227.747 96.7998 226.955 96.7998 226.559 96.7998 226.262 96.7008 225.965 96.6018 225.668 96.5028 225.371 96.2059 225.173 96.008L225.074 96.008 224.876 96.7008 224.283 96.7008 224.283 88.4857 225.173 88.4857 225.173 90.4652C225.173 90.8611 225.173 91.356 225.173 91.653 225.569 91.1581 226.163 90.8611 226.955 90.8611ZM226.856 91.653C226.262 91.653 225.866 91.8509 225.569 92.1478 225.272 92.4448 225.173 93.0386 225.173 93.8305 225.173 94.6223 225.272 95.2161 225.569 95.612 225.866 96.008 226.262 96.1069 226.856 96.1069 227.351 96.1069 227.747 95.909 228.044 95.5131 228.341 95.1172 228.44 94.5233 228.44 93.8305 228.44 93.0386 228.341 92.5438 228.044 92.1478 227.846 91.8509 227.45 91.653 226.856 91.653Z" fill="#671760" fill-rule="nonzero" fill-opacity="1" transform="matrix(1.00568 0 0 1 245 180.206)"/><path d="M230.023 90.9601 230.914 90.9601 232.201 94.2264C232.498 95.0182 232.696 95.5131 232.696 95.81 232.696 95.612 232.795 95.3151 232.992 94.9192 233.091 94.5233 233.586 93.1376 234.378 90.9601L235.269 90.9601 232.795 97.4926C232.597 98.1855 232.3 98.5814 231.904 98.8783 231.607 99.1752 231.211 99.2742 230.716 99.2742 230.419 99.2742 230.221 99.2742 229.924 99.1752L229.924 98.4824C230.122 98.4824 230.32 98.5814 230.617 98.5814 231.211 98.5814 231.607 98.2844 231.904 97.5916L232.201 96.7998 230.023 90.9601Z" fill="#671760" fill-rule="nonzero" fill-opacity="1" transform="matrix(1.00568 0 0 1 245 180.206)"/><path d="M239.03 89.4755C239.03 89.2775 239.03 89.1785 239.129 89.0795 239.228 88.9806 239.327 88.9806 239.525 88.9806 239.624 88.9806 239.822 88.9806 239.921 89.0795 240.02 89.1785 240.119 89.2775 240.119 89.4755 240.119 89.6734 240.02 89.7724 239.921 89.8714 239.822 89.9703 239.723 89.9703 239.525 89.9703 239.426 89.9703 239.228 89.9703 239.129 89.8714 239.129 89.7724 239.03 89.6734 239.03 89.4755ZM240.02 96.7998 239.129 96.7998 239.129 91.0591 240.02 91.0591 240.02 96.7998Z" fill="#671760" fill-rule="nonzero" fill-opacity="1" transform="matrix(1.00568 0 0 1 245 180.206)"/><path d="M245.761 96.7998 245.761 93.0386C245.761 92.5438 245.662 92.2468 245.464 91.9499 245.266 91.653 244.87 91.554 244.474 91.554 243.88 91.554 243.385 91.7519 243.187 92.0489 242.89 92.3458 242.791 92.9397 242.791 93.6325L242.791 96.7008 241.9 96.7008 241.9 90.9601 242.593 90.9601 242.692 91.7519C242.89 91.455 243.088 91.257 243.484 91.0591 243.781 90.8611 244.177 90.8611 244.573 90.8611 245.266 90.8611 245.761 91.0591 246.156 91.356 246.552 91.653 246.651 92.2468 246.651 92.9397L246.651 96.7008 245.761 96.7008Z" fill="#671760" fill-rule="nonzero" fill-opacity="1" transform="matrix(1.00568 0 0 1 245 180.206)"/><path d="M252.392 96.008 252.392 96.008C251.897 96.6018 251.303 96.8988 250.511 96.8988 249.72 96.8988 249.126 96.6018 248.73 96.1069 248.334 95.612 248.136 94.8202 248.136 93.9294 248.136 92.9397 248.334 92.2468 248.73 91.7519 249.126 91.257 249.72 90.9601 250.511 90.9601 251.303 90.9601 251.897 91.257 252.293 91.8509L252.392 91.8509 252.392 91.455 252.392 91.0591 252.392 88.6836 253.283 88.6836 253.283 96.8988 252.59 96.8988 252.392 96.008ZM250.61 96.1069C251.204 96.1069 251.6 95.909 251.897 95.612 252.194 95.3151 252.293 94.7212 252.293 94.0284L252.293 93.8305C252.293 93.0386 252.194 92.4448 251.897 92.0489 251.6 91.653 251.204 91.554 250.61 91.554 250.116 91.554 249.72 91.7519 249.423 92.1478 249.126 92.5438 249.027 93.1376 249.027 93.8305 249.027 94.5233 249.126 95.1172 249.423 95.5131 249.72 95.909 250.116 96.1069 250.61 96.1069Z" fill="#671760" fill-rule="nonzero" fill-opacity="1" transform="matrix(1.00568 0 0 1 245 180.206)"/><path d="M255.856 90.9601 255.856 94.7212C255.856 95.2161 255.955 95.5131 256.153 95.81 256.351 96.008 256.747 96.2059 257.143 96.2059 257.737 96.2059 258.232 96.008 258.43 95.711 258.727 95.4141 258.826 94.8202 258.826 94.1274L258.826 91.0591 259.716 91.0591 259.716 96.7998 259.024 96.7998 258.925 96.008C258.727 96.3049 258.529 96.5028 258.133 96.7008 257.836 96.8988 257.44 96.8988 257.044 96.8988 256.351 96.8988 255.856 96.7008 255.46 96.4039 255.064 96.1069 254.965 95.5131 254.965 94.8202L254.965 91.0591 255.856 91.0591Z" fill="#671760" fill-rule="nonzero" fill-opacity="1" transform="matrix(1.00568 0 0 1 245 180.206)"/><path d="M265.358 95.2161C265.358 95.711 265.16 96.2059 264.764 96.5028 264.368 96.7998 263.774 96.8988 263.082 96.8988 262.29 96.8988 261.696 96.7998 261.3 96.5028L261.3 95.711C261.597 95.81 261.894 96.008 262.191 96.008 262.488 96.1069 262.785 96.1069 263.082 96.1069 263.576 96.1069 263.873 96.008 264.17 95.909 264.368 95.81 264.566 95.5131 264.566 95.2161 264.566 95.0182 264.467 94.8202 264.269 94.6223 264.071 94.4243 263.675 94.2264 263.181 94.0284 262.686 93.8305 262.29 93.6325 261.993 93.5335 261.795 93.3356 261.597 93.2366 261.498 93.0386 261.399 92.8407 261.3 92.6427 261.3 92.3458 261.3 91.8509 261.498 91.554 261.894 91.257 262.29 90.9601 262.785 90.8611 263.478 90.8611 264.071 90.8611 264.665 90.9601 265.259 91.257L264.962 91.9499C264.368 91.7519 263.873 91.554 263.379 91.554 262.983 91.554 262.686 91.653 262.488 91.7519 262.29 91.8509 262.191 92.0489 262.191 92.2468 262.191 92.4448 262.191 92.5438 262.29 92.6427 262.389 92.7417 262.488 92.8407 262.686 92.9397 262.884 93.0386 263.181 93.1376 263.675 93.3356 264.368 93.6325 264.863 93.8305 265.061 94.1274 265.259 94.5233 265.358 94.8202 265.358 95.2161Z" fill="#671760" fill-rule="nonzero" fill-opacity="1" transform="matrix(1.00568 0 0 1 245 180.206)"/><path d="M268.624 96.1069C268.822 96.1069 268.921 96.1069 269.119 96.1069 269.218 96.1069 269.416 96.1069 269.416 96.008L269.416 96.7008C269.317 96.7008 269.218 96.7998 269.02 96.7998 268.822 96.7998 268.624 96.7998 268.525 96.7998 267.437 96.7998 266.843 96.2059 266.843 95.0182L266.843 91.554 266.051 91.554 266.051 91.1581 266.843 90.7622 267.239 89.5744 267.734 89.5744 267.734 90.8611 269.416 90.8611 269.416 91.554 267.734 91.554 267.734 94.9192C267.734 95.3151 267.833 95.5131 267.931 95.711 268.129 96.008 268.327 96.1069 268.624 96.1069Z" fill="#671760" fill-rule="nonzero" fill-opacity="1" transform="matrix(1.00568 0 0 1 245 180.206)"/><path d="M273.177 90.8611C273.474 90.8611 273.672 90.8611 273.87 90.9601L273.771 91.7519C273.573 91.653 273.276 91.653 273.177 91.653 272.682 91.653 272.286 91.8509 271.99 92.2468 271.693 92.6427 271.495 93.1376 271.495 93.6325L271.495 96.7008 270.604 96.7008 270.604 90.9601 271.297 90.9601 271.396 92.0489C271.594 91.653 271.891 91.356 272.188 91.1581 272.484 90.9601 272.781 90.8611 273.177 90.8611Z" fill="#671760" fill-rule="nonzero" fill-opacity="1" transform="matrix(1.00568 0 0 1 245 180.206)"/><path d="M274.068 90.9601 274.959 90.9601 276.246 94.2264C276.543 95.0182 276.74 95.5131 276.74 95.81 276.74 95.612 276.839 95.3151 277.037 94.9192 277.136 94.5233 277.631 93.1376 278.423 90.9601L279.314 90.9601 276.839 97.4926C276.641 98.1855 276.345 98.5814 275.949 98.8783 275.652 99.1752 275.256 99.2742 274.761 99.2742 274.464 99.2742 274.266 99.2742 273.969 99.1752L273.969 98.4824C274.167 98.4824 274.365 98.5814 274.662 98.5814 275.256 98.5814 275.652 98.2844 275.949 97.5916L276.246 96.7998 274.068 90.9601Z" fill="#671760" fill-rule="nonzero" fill-opacity="1" transform="matrix(1.00568 0 0 1 245 180.206)"/><path d="M180.634 107.489 180.436 106.698C180.139 107.093 179.842 107.291 179.545 107.39 179.248 107.489 178.951 107.588 178.456 107.588 177.862 107.588 177.466 107.489 177.07 107.192 176.773 106.895 176.575 106.5 176.575 105.906 176.575 104.718 177.466 104.124 179.347 104.124L180.337 104.124 180.337 103.728C180.337 103.233 180.238 102.936 180.04 102.738 179.842 102.54 179.545 102.441 179.149 102.441 178.654 102.441 178.159 102.54 177.565 102.837L177.268 102.145C177.565 101.947 177.862 101.848 178.159 101.749 178.456 101.65 178.852 101.65 179.149 101.65 179.842 101.65 180.337 101.848 180.634 102.145 180.93 102.441 181.128 102.936 181.128 103.629L181.128 107.588 180.634 107.588ZM178.654 106.895C179.149 106.895 179.644 106.698 179.941 106.401 180.238 106.104 180.436 105.708 180.436 105.114L180.436 104.619 179.545 104.619C178.852 104.619 178.357 104.718 178.06 104.916 177.763 105.114 177.565 105.411 177.565 105.807 177.565 106.104 177.664 106.401 177.862 106.5 178.06 106.599 178.357 106.895 178.654 106.895Z" fill="#671760" fill-rule="nonzero" fill-opacity="1" transform="matrix(1.00568 0 0 1 245 180.206)"/><path d="M187.067 107.489 187.067 103.728C187.067 103.233 186.968 102.936 186.77 102.639 186.572 102.441 186.176 102.244 185.78 102.244 185.186 102.244 184.692 102.441 184.494 102.738 184.197 103.035 184.098 103.629 184.098 104.322L184.098 107.39 183.108 107.39 183.108 101.65 183.801 101.65 183.9 102.441C184.098 102.145 184.296 101.947 184.692 101.749 184.989 101.551 185.384 101.551 185.78 101.551 186.473 101.551 186.968 101.749 187.364 102.046 187.76 102.342 187.859 102.936 187.859 103.629L187.859 107.39 187.067 107.39Z" fill="#671760" fill-rule="nonzero" fill-opacity="1" transform="matrix(1.00568 0 0 1 245 180.206)"/><path d="M193.6 106.698 193.6 106.698C193.105 107.291 192.511 107.588 191.719 107.588 190.927 107.588 190.333 107.291 189.937 106.796 189.541 106.302 189.344 105.51 189.344 104.619 189.344 103.629 189.541 102.936 189.937 102.441 190.333 101.947 190.927 101.65 191.719 101.65 192.511 101.65 193.105 101.947 193.501 102.54L193.6 102.54 193.6 102.145 193.6 101.749 193.6 99.3732 194.49 99.3732 194.49 107.588 193.798 107.588 193.6 106.698ZM191.917 106.895C192.511 106.895 192.907 106.698 193.204 106.401 193.501 106.104 193.6 105.51 193.6 104.817L193.6 104.619C193.6 103.827 193.501 103.233 193.204 102.837 192.907 102.441 192.511 102.342 191.917 102.342 191.422 102.342 191.026 102.54 190.729 102.936 190.432 103.332 190.333 103.926 190.333 104.619 190.333 105.312 190.432 105.906 190.729 106.302 190.927 106.698 191.323 106.895 191.917 106.895Z" fill="#671760" fill-rule="nonzero" fill-opacity="1" transform="matrix(1.00568 0 0 1 245 180.206)"/><path d="M202.606 107.489 202.409 106.698C202.112 107.093 201.815 107.291 201.518 107.39 201.221 107.489 200.924 107.588 200.429 107.588 199.835 107.588 199.439 107.489 199.043 107.192 198.746 106.895 198.548 106.5 198.548 105.906 198.548 104.718 199.439 104.124 201.32 104.124L202.31 104.124 202.31 103.728C202.31 103.233 202.211 102.936 202.013 102.738 201.815 102.54 201.518 102.441 201.122 102.441 200.627 102.441 200.132 102.54 199.538 102.837L199.241 102.145C199.538 101.947 199.835 101.848 200.132 101.749 200.429 101.65 200.825 101.65 201.122 101.65 201.815 101.65 202.31 101.848 202.606 102.145 202.903 102.441 203.101 102.936 203.101 103.629L203.101 107.588 202.606 107.588ZM200.627 106.895C201.122 106.895 201.617 106.698 201.914 106.401 202.211 106.104 202.409 105.708 202.409 105.114L202.409 104.619 201.518 104.619C200.825 104.619 200.33 104.718 200.033 104.916 199.736 105.114 199.538 105.411 199.538 105.807 199.538 106.104 199.637 106.401 199.835 106.5 200.033 106.599 200.33 106.895 200.627 106.895Z" fill="#671760" fill-rule="nonzero" fill-opacity="1" transform="matrix(1.00568 0 0 1 245 180.206)"/><path d="M207.357 107.588C206.566 107.588 205.873 107.291 205.378 106.796 204.883 106.302 204.685 105.51 204.685 104.619 204.685 103.629 204.883 102.936 205.378 102.342 205.873 101.848 206.467 101.551 207.357 101.551 207.654 101.551 207.951 101.551 208.149 101.65 208.446 101.749 208.644 101.749 208.842 101.848L208.545 102.54C208.347 102.441 208.149 102.441 207.951 102.342 207.753 102.244 207.555 102.244 207.357 102.244 206.17 102.244 205.576 103.035 205.576 104.52 205.576 105.213 205.675 105.807 205.972 106.104 206.269 106.5 206.665 106.698 207.258 106.698 207.753 106.698 208.248 106.599 208.743 106.401L208.743 107.192C208.446 107.489 207.951 107.588 207.357 107.588Z" fill="#671760" fill-rule="nonzero" fill-opacity="1" transform="matrix(1.00568 0 0 1 245 180.206)"/><path d="M213.692 107.489 213.494 106.698C213.197 107.093 212.9 107.291 212.603 107.39 212.306 107.489 212.009 107.588 211.514 107.588 210.921 107.588 210.525 107.489 210.129 107.192 209.832 106.895 209.634 106.5 209.634 105.906 209.634 104.718 210.525 104.124 212.405 104.124L213.395 104.124 213.395 103.728C213.395 103.233 213.296 102.936 213.098 102.738 212.9 102.54 212.603 102.441 212.207 102.441 211.712 102.441 211.217 102.54 210.624 102.837L210.327 102.145C210.624 101.947 210.921 101.848 211.217 101.749 211.514 101.65 211.91 101.65 212.207 101.65 212.9 101.65 213.395 101.848 213.692 102.145 213.989 102.441 214.187 102.936 214.187 103.629L214.187 107.588 213.692 107.588ZM211.712 106.895C212.207 106.895 212.702 106.698 212.999 106.401 213.296 106.104 213.494 105.708 213.494 105.114L213.494 104.619 212.603 104.619C211.91 104.619 211.415 104.718 211.119 104.916 210.822 105.114 210.624 105.411 210.624 105.807 210.624 106.104 210.723 106.401 210.921 106.5 211.119 106.599 211.415 106.895 211.712 106.895Z" fill="#671760" fill-rule="nonzero" fill-opacity="1" transform="matrix(1.00568 0 0 1 245 180.206)"/><path d="M220.125 106.698 220.125 106.698C219.631 107.291 219.037 107.588 218.245 107.588 217.453 107.588 216.859 107.291 216.463 106.796 216.067 106.302 215.869 105.51 215.869 104.619 215.869 103.629 216.067 102.936 216.463 102.441 216.859 101.947 217.453 101.65 218.245 101.65 219.037 101.65 219.631 101.947 220.026 102.54L220.125 102.54 220.125 102.145 220.125 101.749 220.125 99.3732 221.016 99.3732 221.016 107.588 220.323 107.588 220.125 106.698ZM218.344 106.895C218.938 106.895 219.334 106.698 219.631 106.401 219.928 106.104 220.026 105.51 220.026 104.817L220.026 104.619C220.026 103.827 219.928 103.233 219.631 102.837 219.334 102.441 218.938 102.342 218.344 102.342 217.849 102.342 217.453 102.54 217.156 102.936 216.859 103.332 216.76 103.926 216.76 104.619 216.76 105.312 216.859 105.906 217.156 106.302 217.453 106.698 217.849 106.895 218.344 106.895Z" fill="#671760" fill-rule="nonzero" fill-opacity="1" transform="matrix(1.00568 0 0 1 245 180.206)"/><path d="M225.173 107.588C224.283 107.588 223.689 107.291 223.194 106.796 222.699 106.302 222.501 105.51 222.501 104.619 222.501 103.728 222.699 102.936 223.194 102.441 223.689 101.848 224.283 101.65 225.074 101.65 225.767 101.65 226.361 101.848 226.757 102.342 227.153 102.837 227.351 103.431 227.351 104.223L227.351 104.817 223.392 104.817C223.392 105.51 223.59 106.005 223.887 106.401 224.184 106.796 224.678 106.895 225.272 106.895 225.866 106.895 226.46 106.796 227.153 106.5L227.153 107.291C226.856 107.39 226.559 107.489 226.262 107.588 225.866 107.588 225.569 107.588 225.173 107.588ZM224.975 102.342C224.48 102.342 224.184 102.54 223.887 102.837 223.59 103.134 223.491 103.53 223.392 104.124L226.361 104.124C226.361 103.53 226.262 103.134 225.965 102.837 225.767 102.54 225.371 102.342 224.975 102.342Z" fill="#671760" fill-rule="nonzero" fill-opacity="1" transform="matrix(1.00568 0 0 1 245 180.206)"/><path d="M236.16 107.489 236.16 103.728C236.16 103.233 236.061 102.936 235.863 102.738 235.665 102.54 235.368 102.441 234.972 102.441 234.477 102.441 233.982 102.639 233.784 102.936 233.487 103.233 233.388 103.728 233.388 104.421L233.388 107.588 232.498 107.588 232.498 103.827C232.498 103.332 232.399 103.035 232.201 102.837 232.003 102.639 231.706 102.54 231.31 102.54 230.716 102.54 230.32 102.738 230.122 103.035 229.825 103.332 229.726 103.926 229.726 104.619L229.726 107.687 228.835 107.687 228.835 101.947 229.528 101.947 229.627 102.738C229.825 102.441 230.023 102.244 230.32 102.046 230.617 101.848 230.914 101.848 231.31 101.848 232.201 101.848 232.795 102.145 233.091 102.837 233.289 102.54 233.487 102.342 233.883 102.145 234.18 101.947 234.576 101.848 234.972 101.848 235.665 101.848 236.16 102.046 236.457 102.342 236.754 102.639 236.952 103.233 236.952 103.926L236.952 107.687 236.16 107.687Z" fill="#671760" fill-rule="nonzero" fill-opacity="1" transform="matrix(1.00568 0 0 1 245 180.206)"/><path d="M238.733 100.165C238.733 99.967 238.733 99.8681 238.832 99.7691 238.931 99.6701 239.03 99.6701 239.228 99.6701 239.327 99.6701 239.525 99.6701 239.624 99.7691 239.723 99.8681 239.822 99.967 239.822 100.165 239.822 100.363 239.723 100.462 239.624 100.561 239.525 100.66 239.426 100.66 239.228 100.66 239.129 100.66 238.931 100.66 238.832 100.561 238.733 100.561 238.733 100.363 238.733 100.165ZM239.624 107.489 238.733 107.489 238.733 101.749 239.624 101.749 239.624 107.489Z" fill="#671760" fill-rule="nonzero" fill-opacity="1" transform="matrix(1.00568 0 0 1 245 180.206)"/><path d="M245.068 107.489 244.87 106.698C244.573 107.093 244.276 107.291 243.979 107.39 243.682 107.489 243.385 107.588 242.89 107.588 242.296 107.588 241.9 107.489 241.505 107.192 241.208 106.895 241.01 106.5 241.01 105.906 241.01 104.718 241.9 104.124 243.781 104.124L244.771 104.124 244.771 103.728C244.771 103.233 244.672 102.936 244.474 102.738 244.276 102.54 243.979 102.441 243.583 102.441 243.088 102.441 242.593 102.54 241.999 102.837L241.702 102.145C241.999 101.947 242.296 101.848 242.593 101.749 242.89 101.65 243.286 101.65 243.583 101.65 244.276 101.65 244.771 101.848 245.068 102.145 245.365 102.441 245.563 102.936 245.563 103.629L245.563 107.588 245.068 107.588ZM243.088 106.895C243.583 106.895 244.078 106.698 244.375 106.401 244.672 106.104 244.87 105.708 244.87 105.114L244.87 104.619 243.979 104.619C243.286 104.619 242.791 104.718 242.494 104.916 242.197 105.114 241.999 105.411 241.999 105.807 241.999 106.104 242.098 106.401 242.296 106.5 242.494 106.599 242.791 106.895 243.088 106.895Z" fill="#671760" fill-rule="nonzero" fill-opacity="1" transform="matrix(1.00568 0 0 1 245 180.206)"/><path d="M133.421 41.4715C128.769 41.4715 124.909 45.3316 124.909 50.0825 124.909 54.9324 128.67 58.8915 133.322 58.8915 137.974 58.8915 141.834 54.9324 141.834 50.1815 141.834 45.4306 138.073 41.4715 133.421 41.4715M85.0215 43.649C85.0215 43.2531 85.0215 42.9561 85.0215 42.5602 85.0215 35.9287 85.0215 29.2973 85.0215 22.6658 85.0215 21.973 85.2194 21.775 85.9123 21.775 90.4652 21.775 95.0182 21.775 99.6701 21.775 100.165 21.775 100.66 21.775 101.155 21.874 103.827 22.3689 105.312 24.0515 105.312 27.0208 105.411 30.683 105.312 34.3451 105.312 38.0073 105.312 40.0858 105.312 42.0653 105.411 44.1439 105.609 43.451 105.708 42.7582 105.906 42.0653 108.776 30.7819 117.981 22.4678 129.165 20.9832 136.886 19.9934 144.111 21.3791 150.544 26.229 156.582 30.683 160.046 36.9185 161.333 44.4408 162.422 50.9733 161.729 57.4068 158.859 63.3455 154.504 72.1544 147.575 77.4002 138.172 78.9839 130.947 80.1716 124.019 78.9839 117.783 75.0248 111.25 70.8677 107.39 64.7311 105.708 57.0109 105.708 56.813 105.609 56.615 105.609 56.417 105.609 56.3181 105.51 56.3181 105.411 56.1201L105.411 78.39 104.52 78.39C100.363 78.39 96.2059 78.39 92.0489 78.39 88.1888 78.39 85.1205 77.0043 82.844 73.837 79.3798 69.0861 76.0145 64.3352 72.6493 59.4853 71.9565 58.4956 71.2636 57.5058 70.4718 56.615L70.4718 78.39 69.581 78.39C65.0281 78.39 60.4751 78.39 55.8232 78.39 55.4273 78.39 55.0314 78.39 54.6355 78.291 51.6661 77.7961 50.1815 76.1135 50.0825 72.9463 49.9835 67.5025 50.0825 62.1577 49.9835 56.714 49.9835 52.458 49.9835 48.2019 49.9835 43.9459L49.9835 42.9561 36.9185 42.9561 36.9185 78.39 36.1267 78.39C31.1778 78.39 26.229 78.39 21.2801 78.39 20.7852 78.39 20.3893 78.39 19.8944 78.291 16.9251 77.7961 15.5394 76.2125 15.3415 72.8473 15.3415 72.3524 15.3415 71.8575 15.3415 71.3626 15.3415 62.1577 15.3415 52.9528 15.3415 43.8469L15.3415 42.8572 13.5599 42.8572C10.8875 42.8572 8.31409 42.8572 5.6417 42.8572 5.04784 42.8572 4.45398 42.8572 3.86011 42.6592 1.38568 42.1643 1.31864e-15 40.5807 1.31864e-15 37.7103 0 32.6625 0 27.4167 0 22.1709 0 22.0719 0 22.0719 0.0989773 21.874 0.395909 21.874 0.692841 21.874 0.890795 21.874 21.775 21.874 42.6592 21.874 63.5434 21.874 67.3045 21.874 70.2739 23.4576 72.5503 26.5259 76.3115 31.7717 80.0726 37.0175 83.8337 42.2633 84.2297 42.7582 84.5266 43.2531 84.9225 43.748 84.9225 43.748 85.0215 43.649 85.0215 43.649" fill="#1D1D1B" fill-rule="nonzero" fill-opacity="1" transform="matrix(1.00568 0 0 1 245 180.206)"/></g></g></g></g></g></svg>